<?xml version="1.0" standalone="no"?>
<!DOCTYPE svg PUBLIC "-//W3C//DTD SVG 20010904//EN"
 "http://www.w3.org/TR/2001/REC-SVG-20010904/DTD/svg10.dtd">
<svg version="1.0" xmlns="http://www.w3.org/2000/svg"
 width="700.000000pt" height="700.000000pt" viewBox="0 0 700.000000 700.000000"
 preserveAspectRatio="xMidYMid meet">
<metadata>
Created by potrace 1.14, written by Peter Selinger 2001-2017
</metadata>
<g transform="translate(0.000000,700.000000) scale(0.100000,-0.100000)"
fill="#000000" stroke="none">
<path d="M3009 6175 c-324 -65 -576 -332 -629 -667 -8 -53 -10 -423 -8 -1343
4 -1429 -3 -1303 83 -1480 99 -206 296 -368 512 -422 l72 -18 3 -520 c3 -501
4 -522 24 -571 48 -116 129 -196 241 -235 84 -29 207 -24 285 13 80 37 151
107 191 187 l32 66 5 529 5 530 70 17 c90 23 235 96 303 152 115 96 213 240
260 384 41 125 43 203 40 1483 l-3 1225 -23 80 c-87 309 -314 526 -617 590
-94 20 -746 20 -846 0z m-51 -441 c31 -36 28 -62 -17 -122 -24 -32 -43 -71
-50 -102 -7 -32 -11 -207 -11 -471 l0 -420 -25 -24 c-32 -33 -78 -33 -111 0
l-25 25 3 468 c3 516 1 498 71 600 55 82 117 99 165 46z m-99 -1300 c19 -24
21 -40 21 -149 0 -115 -1 -123 -24 -144 -25 -24 -47 -28 -87 -18 -39 10 -49
45 -49 174 0 106 2 119 22 140 31 33 90 32 117 -3z m758 -2044 l73 0 0 -562
c0 -310 -3 -580 -6 -601 -18 -106 -114 -194 -221 -204 -58 -5 -140 15 -100 24
14 4 5 13 -34 36 -66 40 -106 95 -119 166 -12 62 -14 1133 -2 1146 4 4 81 5
171 1 90 -3 197 -6 238 -6z"/>
<path d="M965 5505 c-203 -44 -363 -204 -410 -410 -14 -57 -15 -179 -13 -873
l3 -807 23 -59 c60 -158 167 -273 310 -331 l57 -23 5 -299 5 -298 28 -57 c59
-119 170 -184 301 -176 125 8 223 80 266 195 18 49 20 78 20 344 0 267 1 290
18 295 9 3 51 21 92 42 134 65 235 191 277 343 17 59 18 130 18 864 0 748 -1
804 -18 859 -64 208 -227 360 -421 395 -85 16 -486 13 -561 -4z m369 -159 c94
-43 145 -90 189 -174 83 -158 117 -384 133 -877 9 -321 -18 -586 -81 -780 -54
-165 -112 -236 -257 -318 l-83 -47 83 0 82 0 0 -357 c0 -321 -2 -362 -18 -393
-51 -103 -204 -108 -259 -8 -16 30 -18 69 -21 393 l-3 361 -74 11 c-140 23
-255 107 -313 231 l-27 57 0 825 0 825 27 55 c53 107 127 172 243 212 37 13
83 17 178 18 125 0 130 -1 201 -34z"/>
<path d="M5252 5500 c-98 -26 -174 -70 -247 -145 -67 -67 -126 -175 -144 -263
-7 -36 -11 -312 -11 -845 0 -880 -2 -848 67 -980 49 -94 135 -177 226 -221 40
-19 80 -37 90 -40 16 -5 17 -28 17 -289 0 -222 3 -294 15 -334 36 -121 154
-207 284 -207 117 0 212 62 263 169 l28 60 0 296 0 296 56 22 c157 60 272 186
327 356 l22 70 0 805 c0 753 -1 809 -18 864 -50 160 -152 284 -287 349 -103
49 -161 57 -404 56 -175 0 -224 -3 -284 -19z m392 -159 c189 -91 257 -245 297
-676 17 -180 18 -745 1 -860 -19 -132 -57 -285 -93 -372 -41 -97 -112 -170
-229 -236 l-85 -47 88 0 88 0 -3 -367 c-3 -367 -3 -368 -26 -401 -65 -91 -205
-81 -254 18 -16 31 -18 72 -18 391 l0 357 -72 10 c-188 28 -325 165 -349 350
-12 95 -11 1441 1 1527 19 130 98 243 209 299 72 37 110 44 244 45 118 1 118
1 201 -38z"/>
</g>
</svg>
