<?xml version="1.0" encoding="UTF-8"?><svg id="a" xmlns="http://www.w3.org/2000/svg" viewBox="0 0 260 260"><defs><style>.b{opacity:.2;}.c{opacity:.8;}.d{fill:#f9b87b;}.d,.e,.f,.g,.h,.i,.j,.k,.l,.m{stroke-width:0px;}.e{fill:#58b847;}.f{fill:#40853f;}.g{fill:#231f20;}.h{fill:#ce1f35;}.i{fill:#d74b26;}.j{fill:#be8663;}.k{fill:#9a1b29;}.l{fill:#fff;}.m{fill:#f26d21;}</style></defs><g class="b"><path class="g" d="M145.35,33h-19.7c-16.35,0-29.65,13.37-29.65,29.79v87.4c0,14.84,10.85,27.18,25,29.43v35.98c0,5.45,3.19,10.54,8.13,12.96.46.23.94.43,1.41.6.02,0,.1.04.12.04.44.16.89.29,1.32.4l.28.07c.42.1.84.17,1.21.22.12.02.24.04.41.06.56.06,1.09.09,1.61.09,1.95,0,3.85-.39,5.64-1.14,5.38-2.28,8.86-7.5,8.86-13.3v-35.98c14.15-2.25,25-14.59,25-29.43V62.79c0-16.43-13.3-29.79-29.65-29.79Z"/><path class="g" d="M220.15,58h-13.3c-10.95,0-19.85,9.13-19.85,20.34v53.48c0,9.5,6.39,17.51,15,19.73v19.82c0,4.78,3.03,9.1,7.56,10.76.04.01.08.03.11.04.35.12.7.23.98.3.07.02.2.05.27.07.31.07.63.13.95.17.11.02.26.04.35.05.44.05.86.07,1.27.07,6.34,0,11.5-5.14,11.5-11.46v-19.82c8.61-2.22,15-10.23,15-19.73v-53.48c0-11.22-8.91-20.34-19.85-20.34Z"/><path class="g" d="M60.15,58h-12.3c-10.95,0-19.85,9.13-19.85,20.34v53.48c0,9.5,6.39,17.51,15,19.73v20.07c0,4.57,2.9,8.71,7.23,10.28,0,0,.07.03.1.04.33.12.67.22.95.29.07.02.19.05.26.06.3.07.6.12.91.17.1.02.25.04.33.05.42.05.82.07,1.22.07,6.07,0,11-4.92,11-10.96v-20.07c8.61-2.22,15-10.23,15-19.73v-53.48c0-11.22-8.91-20.34-19.85-20.34Z"/></g><path class="g" d="M137.35,30h-19.7c-16.35,0-29.65,13.37-29.65,29.79v87.4c0,14.84,10.85,27.18,25,29.43v35.69c0,5.45,3.19,10.54,8.13,12.96.46.23.94.43,1.41.6.02,0,.1.04.12.04.44.16.89.29,1.32.4l.28.07c.42.1.84.17,1.21.22.12.02.24.04.41.06.56.06,1.09.09,1.61.09,1.95,0,3.85-.39,5.64-1.14,5.38-2.28,8.86-7.5,8.86-13.3v-35.69c14.15-2.25,25-14.59,25-29.43V59.79c0-16.43-13.3-29.79-29.65-29.79Z"/><path class="g" d="M212.15,55h-12.3c-10.95,0-19.85,9.13-19.85,20.34v53.48c0,9.5,6.39,17.51,15,19.73v19.78c0,4.57,2.9,8.7,7.23,10.29.04.01.07.03.11.04.33.12.67.22.94.28.07.02.19.05.26.06.3.07.6.12.91.17.1.02.25.04.33.05.42.05.82.07,1.22.07,6.07,0,11-4.92,11-10.96v-19.78c8.61-2.22,15-10.23,15-19.73v-53.48c0-11.22-8.91-20.34-19.85-20.34Z"/><path class="g" d="M53.15,55h-13.3c-10.95,0-19.85,9.13-19.85,20.34v53.48c0,9.5,6.39,17.51,15,19.73v19.53c0,4.78,3.04,9.1,7.56,10.75,0,0,.08.03.11.04.35.12.71.23.99.3.07.02.2.05.27.07.31.07.63.13.95.17.11.02.26.04.35.05.44.05.86.07,1.27.07,6.34,0,11.5-5.14,11.5-11.46v-19.53c8.61-2.22,15-10.23,15-19.73v-53.48c0-11.22-8.91-20.34-19.85-20.34Z"/><rect class="d" x="119" y="152" width="18" height="69" rx="8.97" ry="8.97"/><path class="j" d="M130.7,152.01c.19.73.3,1.49.3,2.28v55.57c0,7.53-2.61,10.15-7.22,11.43,1.22.6,2.58.94,4.03.94,5.06,0,9.19-4.12,9.19-9.16v-52.39c0-4.03-2.65-7.47-6.3-8.68Z"/><rect class="h" x="94" y="35" width="68" height="136" rx="24.33" ry="24.33"/><path class="k" d="M137.57,35h-9.72c11.63,5.69,23.61,4.35,24.8,62.51.09,4.3,2.34,34.97-6.54,56.35-3.8,9.16-9.42,11.84-19.02,17.13h10.48c13.43,0,24.43-10.95,24.43-24.33V59.33c0-13.38-10.99-24.33-24.43-24.33Z"/><rect class="d" x="201" y="132" width="11" height="42" rx="5.47" ry="5.47"/><path class="j" d="M207.95,132.03c.11.43.18.89.05,1.36v33.07c.13,4.48-1.42,6.04-4.16,6.8.73.36,1.54.56,2.4.56,3.01,0,5.47-2.45,5.77-5.45v-31.18c-.3-2.4-1.87-4.44-4.05-5.17Z"/><rect class="m" x="185" y="60" width="42" height="83" rx="14.94" ry="14.94"/><path class="i" d="M212.09,60h-5.93c7.09,3.47,14.41,2.66,15.13,38.15.05,2.62,1.43,21.34-3.99,34.39-2.32,5.59-5.75,7.23-11.61,10.46h6.4c8.2,0,14.91-6.68,14.91-14.85v-53.3c0-8.17-6.71-14.85-14.91-14.85Z"/><rect class="d" x="41" y="132" width="11" height="42" rx="5.47" ry="5.47"/><path class="j" d="M48.16,132.03c.11.43.18.89-.16,1.36v33.07c.34,4.48-1.22,6.04-3.96,6.8.73.36,1.54.56,2.4.56,3.01,0,5.47-2.45,5.56-5.45v-31.18c-.09-2.4-1.67-4.44-3.84-5.17Z"/><rect class="e" x="25" y="60" width="42" height="83" rx="14.94" ry="14.94"/><path class="f" d="M52.09,60h-5.93c7.09,3.47,14.41,2.66,15.13,38.15.05,2.62,1.43,21.34-3.99,34.39-2.32,5.59-5.75,7.23-11.61,10.46h6.4c8.2,0,14.91-6.68,14.91-14.85v-53.3c0-8.17-6.71-14.85-14.91-14.85Z"/><g class="c"><path class="l" d="M101,97.21v6.33c0,1.74.6,2.83,1.63,3.29,2.22.99,4.37-.6,4.37-2.69v-6.93c0-2.09-2.15-3.68-4.37-2.69-1.03.46-1.63,1.55-1.63,2.68Z"/><path class="l" d="M108.83,46.17c-.99-.5-2.21-.33-3.07.36-4.62,3.74-4.75,10.35-4.75,11.09v29.69c0,1.13.6,2.22,1.63,2.68,2.22.99,4.37-.6,4.37-2.69v-29.67c.01-1.22.48-4.75,2.5-6.43,1.6-1.33,1.46-3.96-.67-5.04Z"/></g><g class="c"><path class="l" d="M29,105.8v4.32c0,1.02.69,1.98,1.7,2.12,1.24.18,2.3-.77,2.3-1.97v-4.62c0-1.2-1.06-2.15-2.3-1.97-1.01.15-1.7,1.1-1.7,2.12Z"/><path class="l" d="M34.49,70.08c-.74-.51-1.76-.39-2.45.19-2.96,2.51-3.04,6.8-3.04,7.28v19.64c0,1.02.69,1.98,1.7,2.12,1.24.18,2.3-.77,2.3-1.97v-19.78c0-.81.32-3.17,1.66-4.28.99-.82.98-2.4-.18-3.2Z"/></g><g class="c"><path class="l" d="M191,106.8v4.32c0,1.02.69,1.98,1.7,2.12,1.24.18,2.3-.77,2.3-1.97v-4.62c0-1.2-1.06-2.15-2.3-1.97-1.01.15-1.7,1.1-1.7,2.12Z"/><path class="l" d="M196.49,71.07c-.74-.51-1.76-.39-2.45.19-2.96,2.51-3.04,6.8-3.04,7.28v19.64c0,1.02.69,1.98,1.7,2.12,1.24.18,2.3-.77,2.3-1.97v-19.78c0-.81.32-3.17,1.66-4.28.99-.82.98-2.4-.18-3.2Z"/></g></svg>