<?xml version="1.0" encoding="UTF-8"?><svg id="a" xmlns="http://www.w3.org/2000/svg" viewBox="0 0 300 168.87"><defs><style>.b,.c,.d{stroke-width:0px;}.c{fill:#e53970;}.d{opacity:.2;}</style></defs><path class="d" d="M42.13,168.87c-19.93,0-37-13.62-39.71-31.68-1.23-8.16.73-16.06,5.64-22.84,5.49-7.58,14.26-13.28,26.05-16.94,4.98-1.55,10.84-2.33,17.43-2.33,12,0,25.84,2.67,37.07,7.13.21.05.47.13.73.19.07-.32.14-.67.19-.92.4-1.95.76-3.89,1.12-5.83,1.08-5.75,2.18-11.66,4.1-17.36-10.06,7.59-20,11.59-28.92,11.59-10.88,0-19.67-6.04-23.51-16.16-4.37-11.52-2.64-31.08,16.42-48.62-1.35-.76-5.18-1.75-10.5-1.75-1.91,0-3.65.14-5.03.41-17.14,3.49-17.02,11.02-16.89,18.98.09,5.42.19,11.56-6.92,14.11-.23.08-.47.12-.71.12-.09,0-.19,0-.28-.02-6.81-.92-8.46-5.23-8.83-7.71-1.54-10.24,11.83-27.17,20.47-31.18,5.86-2.84,11.3-4.23,16.6-4.23,5.72,0,10.18,1.65,13.76,2.97,2.37.88,4.42,1.63,6.11,1.63,1.2,0,2.2-.38,3.22-1.25l.2-.15c10.5-7.06,22.93-10.94,34.99-10.94,5.19,0,10.23.72,14.99,2.15,4.97,1.51,13.78,5.07,17.09,11.94,1.62,3.37,1.68,7.02.19,10.87-2.72,8.37-8.98,14.56-16.47,16.75.52.24.97.57,1.34.99.88.98,1.24,2.3,1.07,3.92-.03.29-.12.56-.26.82-2.35,4.46-7.37,18.09-10.85,30.63-4.94,17.78-4.58,24.8-3.5,26.37,49.6,21.07,88.54,31.76,115.75,31.76h0c22.78,0,36.66-7.66,41.26-22.77,1.32-6.61,4.88-9.57,7.84-9.57,1.74,0,3.19,1.01,3.89,2.69,1.93,4.66-2.2,12.78-11.04,21.73-11.48,11.31-30.45,17.04-56.41,17.04-29.44,0-59.55-7.47-71.13-10.68-.02,0-.05-.01-.07-.02-20.02-6.36-28.64-11.28-32.79-13.64-.66-.38-1.34-.77-1.82-1.01-.16.28-.34.64-.51.97-1.59,3.1-4.9,9.54-15.67,20.02-18.51,18.01-35.07,21.79-45.71,21.79ZM14.18,128.83c-.87,9.29.91,16.46,5.29,21.31,5.08,5.62,12.47,6.8,17.77,6.8,13.26,0,28.02-6.98,36.74-17.38.05-.06.1-.11.16-.17,5.92-5.67,9.9-13.48,11.84-23.22-.08-1.75-3.35-2.75-7.29-3.79-.88-.23-1.74-.46-2.54-.7-8.98-2.71-18.69-4.2-27.35-4.2-25.01,0-32.64,11.58-34.62,21.34ZM65.95,44.75c-2.52,3.69-4.96,10.18-6.24,16.58-1.45,7.28-1.21,13.49.65,17.05,1.29,2.48,3.26,3.63,6.18,3.63,1.61,0,3.5-.37,5.6-1.1,15.18-5.62,25.44-13.34,31.32-23.58.05-.08.1-.16.15-.23,1.66-2.17,5.65-6.28,9.1-8.19-.17,0-.35,0-.52,0-14.57,0-27.97-7.5-39.41-14.61-1.22.29-3.69,4.96-4.52,6.52-.85,1.6-1.58,2.99-2.31,3.92ZM80.25,27.91c10.01,5.97,21.34,12.74,32.94,12.74.28,0,.56,0,.84-.01,5.65-.69,10.08-3.63,13.56-9.01,1.39-2.62,1.46-4.92.21-7.02-2.08-3.51-10.37-8.37-20.53-8.37-.31,0-.6,0-.89.02-.03,0-.5,0-.5,0-4.9,0-9.68,1.03-14.22,3.06l-.05.02c-8.95,4.49-11.63,7-12.4,7.95l1.04.62Z"/><path class="d" d="M204.41,138.07c-1.43,0-2.71-.56-3.68-1.61-2.93-3.17-2.67-10.13-1.99-19.62.18-2.52.41-5.71.34-7.64-1.4.68-2.87,1.02-4.39,1.02-5.49,0-10.22-4.49-12.05-8.92-.13-.33-.24-.59-.34-.78-.58.65-1.38,1.8-1.96,2.64-1.69,2.45-3.78,5.48-6.58,7-2.23,1.8-4.65,2.71-7.21,2.71-5.08,0-11.35-4.38-13.43-11.75-2.11,4.16-4.57,7.73-7.5,10.87-2.95,3.02-6.11,4.53-9.42,4.53-3.49,0-6.95-1.73-10-5-4.78-5.13-7.96-13.56-7.58-20.09-.72-14.67,2.72-38.15,23.12-66.84l.18-.22c1.61-1.71,3.62-2.61,5.81-2.61,1.59,0,3.17.48,4.68,1.43l.15.1c5.2,3.93,1.63,10.5-.73,14.84-.51.93-.99,1.81-1.31,2.53l-.06.12c-5.93,11.08-10.41,23.84-13.29,37.94-2.1,13.44-.97,24.6,1.27,27.24.21.24.38.37.53.37s3.63-.19,10.73-16.76c.04-.1.09-.2.15-.29,1.93-3.13,2.67-7.34,3.46-11.8.72-4.09,1.46-8.32,3.21-12.09.78-3.12,3.64-5.27,7.06-5.27,3.74,0,6.43,2.56,6.59,6.25.42,2.58-.43,6.96-1.83,13.81-1.64,8.03-4.12,20.16-1.51,23.37.26.33.66.66,1.57.66.32,0,.68-.04,1.07-.12,8.4-3.61,9.71-14.39,10.97-24.82,1.3-10.74,2.65-21.84,13.16-21.84.32,0,.65.01.99.03.16.01.33.04.49.09,5.59,1.84,3.73,9.85,1.57,19.13-1.91,8.22-4.08,17.54-1.44,22.8,1.19,1.83,1.9,2.24,2.09,2.33,2.03-1.15,4.07-12.69,5.3-19.62,2.64-14.89,4.92-27.76,11.95-27.76,1.01,0,2.04.29,3.05.88.21.12.39.28.53.47,1.39,1.93,1.04,4.2.64,6.12,3.6-3.93,8.39-6.22,14.28-6.8.07,0,.14-.01.2-.01.02,0,.04,0,.06,0,7.67.23,10.93,4,12.31,7.11,2.47,5.58.82,12.92-1,18.09-2.04,5.79-5.31,11.78-8.57,15.66-.75,1.05-1.59,2.16-2.61,3.17,3.21-1.13,7.06-3.03,7.87-3.8.12-.15.27-.29.42-.4,2.25-1.6,3.33-10.16,4.21-17.04,1.48-11.7,2.88-22.75,9.96-22.75.93,0,1.9.22,2.89.65.13.06.27.13.38.21,2.3,1.62,2.18,4.12,1.83,6.12,6.08-5.97,11.24-7.3,14.63-7.3,4.1,0,7.59,1.94,9.81,5.46,3.58,5.67,3.23,14.38-.94,23.29-2.62,6.21-5.39,12.12-10.18,16.23,4.58-.73,9.63-5.19,12.33-9.42,2.83-5.15,6.46-6.99,8.91-6.99,1.85,0,3.35.95,4.03,2.55,1.07,2.54-.24,6-3.59,9.53-1.05,1.5-2.59,3.03-4.58,4.54h0c-3.74,3.43-8.52,5.77-14.21,6.95l-.18.03c-3.66.42-7.12.63-10.28.63h0c-4.71,0-7.83-.46-9.9-.76-.69-.1-1.27-.19-1.69-.22-.09.67-.14,1.85-.2,3-.19,4.11-.5,10.98-2.68,22.82-.4,3.19-3.77,5.41-6.57,5.41-2.14,0-3.85-1.26-4.45-3.28l-.05-.2c-1.17-6.3-.87-12.88-.58-19.24.16-3.45.31-6.76.23-9.94-6.03,1.98-11.45,2.94-16.49,2.94-3.39,0-5.97-.44-7.86-.77-1.03-.18-1.92-.33-2.52-.33-.5,0-.75,0-1.23,1.87-.65,2.57-1.12,7.24-1.91,14.99,0,.01,0,.08,0,.1-.16,1.29-.16,2.66-.15,3.98,0,3.85,0,9.11-5.87,10.09-.09.02-.18.02-.28.03h-.18ZM256.93,98.67h0ZM273.78,64.12c-2.76,0-7.7,4.11-9.78,8.15-.01.03-.03.06-.04.08-4.65,8.1-6.16,17.6-6.98,25.89.84-.03,2.02-.36,2.98-.63.47-.13.88-.25,1.26-.33,12.17-5.11,14.11-20.93,14.38-27.52.24-3.69-.51-4.92-.84-5.28-.17-.18-.41-.36-.96-.36ZM232.44,64.34c-3.34,0-10.12,5.7-10.94,8.58-.06.22-.16.43-.29.62-.52.82-2.24,5.93-3.72,12.08-1.63,6.78-1.95,10.38-1.86,11.86,6.27-.16,10.82-3.44,13.9-9.99,3.06-6.5,3.84-14.63,3.97-20.3,0-.03,0-.06,0-.09.1-1.48-.14-2.3-.4-2.57-.04-.05-.18-.19-.67-.19Z"/><path class="b" d="M40.07,162.77c-19.93,0-37-13.62-39.71-31.68-1.23-8.16.73-16.06,5.64-22.84,5.49-7.58,14.26-13.28,26.05-16.94,4.98-1.55,10.84-2.33,17.43-2.33,12,0,25.84,2.67,37.07,7.13.21.05.47.13.73.19.07-.32.14-.67.19-.92.4-1.95.76-3.89,1.12-5.83,1.08-5.75,2.18-11.66,4.1-17.36-10.06,7.59-20,11.59-28.92,11.59-10.88,0-19.67-6.04-23.51-16.16-4.37-11.52-2.64-31.08,16.42-48.62-1.35-.76-5.18-1.75-10.5-1.75-1.91,0-3.65.14-5.03.41-17.14,3.49-17.02,11.02-16.89,18.98.09,5.42.19,11.56-6.92,14.11-.23.08-.47.12-.71.12-.09,0-.19,0-.28-.02-6.81-.92-8.46-5.23-8.83-7.71-1.54-10.24,11.83-27.17,20.47-31.18,5.86-2.84,11.3-4.23,16.6-4.23,5.72,0,10.18,1.65,13.76,2.97,2.37.88,4.42,1.63,6.11,1.63,1.2,0,2.2-.38,3.22-1.25l.2-.15C78.37,3.89,90.8,0,102.87,0c5.19,0,10.23.72,14.99,2.15,4.97,1.51,13.78,5.07,17.09,11.94,1.62,3.37,1.68,7.02.19,10.87-2.72,8.37-8.98,14.56-16.47,16.75.52.24.97.57,1.34.99.88.98,1.24,2.3,1.07,3.92-.03.29-.12.56-.26.82-2.35,4.46-7.37,18.09-10.85,30.63-4.94,17.78-4.58,24.8-3.5,26.37,49.6,21.07,88.54,31.76,115.75,31.76h0c22.78,0,36.66-7.66,41.26-22.77,1.32-6.61,4.88-9.57,7.84-9.57,1.74,0,3.19,1.01,3.89,2.69,1.93,4.66-2.2,12.78-11.04,21.73-11.48,11.31-30.45,17.04-56.41,17.04-29.44,0-59.55-7.47-71.13-10.68-.02,0-.05-.01-.07-.02-20.02-6.36-28.64-11.28-32.79-13.64-.66-.38-1.34-.77-1.82-1.01-.16.28-.34.64-.51.97-1.59,3.1-4.9,9.54-15.67,20.02-18.51,18.01-35.07,21.79-45.71,21.79ZM12.12,122.74c-.87,9.29.91,16.46,5.29,21.31,5.08,5.62,12.47,6.8,17.77,6.8,13.26,0,28.02-6.98,36.74-17.38.05-.06.1-.11.16-.17,5.92-5.67,9.9-13.48,11.84-23.22-.08-1.75-3.35-2.75-7.29-3.79-.88-.23-1.74-.46-2.54-.7-8.98-2.71-18.69-4.2-27.35-4.2-25.01,0-32.64,11.58-34.62,21.34ZM63.89,38.66c-2.52,3.69-4.96,10.18-6.24,16.58-1.45,7.28-1.21,13.49.65,17.05,1.29,2.48,3.26,3.63,6.18,3.63,1.61,0,3.5-.37,5.6-1.1,15.18-5.62,25.44-13.34,31.32-23.58.05-.08.1-.16.15-.23,1.66-2.17,5.65-6.28,9.1-8.19-.17,0-.35,0-.52,0-14.57,0-27.97-7.5-39.41-14.61-1.22.29-3.69,4.96-4.52,6.52-.85,1.6-1.58,2.99-2.31,3.92ZM78.18,21.83c10.01,5.97,21.34,12.74,32.94,12.74.28,0,.56,0,.84-.01,5.65-.69,10.08-3.63,13.56-9.01,1.39-2.62,1.46-4.92.21-7.02-2.08-3.51-10.37-8.37-20.53-8.37-.31,0-.6,0-.89.02-.03,0-.5,0-.5,0-4.9,0-9.68,1.03-14.22,3.06l-.05.02c-8.95,4.49-11.63,7-12.4,7.95l1.04.62Z"/><path class="c" d="M103.22,52.31c-7.08,12.32-19.43,19.69-32.45,24.52-23.93,8.28-16.3-28.19-8.57-39.42,2.13-2.65,5.5-12.39,9.25-11.21,12.35,7.69,26.22,15.39,41.2,14.44,9.71,0,17.61-7.22,20.52-16.22,4.35-11.08-7.21-17.43-15.9-20.07-16.33-4.88-34.5-.7-48.22,8.53-8.34,7.08-16.54-10.28-40.18,1.19C17.95,19.14-.87,46.59,16.62,48.95c14.16-5.08-7.42-26.76,24.11-33.18,7.04-1.36,20.77.47,18.03,4.35-39.05,35.06-10.75,86.15,35.31,48.47.95-1.17,2.51-.27,1.79,1.21-3.39,8.35-4.56,17.37-6.35,26.16-.59,3.03-.69,3.12-3.63,2.34-15.05-6.02-37.71-9.62-53.21-4.79-67.82,21.09-10.31,106.42,51.65,46.13,31.89-31.04-3.71-24.83,52.88-6.85,33.45,9.27,98.57,20.72,125.49-5.81,20.97-21.23,5.7-27.5,2.84-12.86-15.69,52.11-126.61,6.59-160.29-7.74-6.38-5.74,9.02-50.87,13.74-59.8.4-3.9-3.53-3.27-5.91-2.54-3.07.94-7.91,5.7-9.86,8.26ZM88.7,11.32c4.94-2.22,10.11-3.32,15.52-3.26,9.57-.44,29.99,5.76,23.11,18.55-3.6,5.6-8.55,9.27-15.21,10.05-13.12.41-25.49-7.36-36.47-13.89-4.67-2.6,10.62-10.22,13.05-11.45ZM73.53,134.83c-19.56,23.32-67.46,28.98-63.49-12.4,5.49-27.55,42.14-25.65,64.66-18.86,4.68,1.41,11.52,2.33,11.32,6.73-1.82,9.29-5.6,17.93-12.49,24.53Z"/><path class="b" d="M202.35,131.98c-1.43,0-2.71-.56-3.68-1.61-2.93-3.17-2.67-10.13-1.99-19.62.18-2.52.41-5.71.34-7.64-1.4.68-2.87,1.02-4.39,1.02-5.49,0-10.22-4.49-12.05-8.92-.13-.33-.24-.59-.34-.78-.58.65-1.38,1.8-1.96,2.64-1.69,2.45-3.78,5.48-6.58,7-2.23,1.8-4.65,2.71-7.21,2.71-5.08,0-11.35-4.38-13.43-11.75-2.11,4.16-4.57,7.73-7.5,10.87-2.95,3.02-6.11,4.53-9.42,4.53-3.49,0-6.95-1.73-10-5-4.78-5.13-7.96-13.56-7.58-20.09-.72-14.67,2.72-38.15,23.12-66.84l.18-.22c1.61-1.71,3.62-2.61,5.81-2.61,1.59,0,3.17.48,4.68,1.43l.15.1c5.2,3.93,1.63,10.5-.73,14.84-.51.93-.99,1.81-1.31,2.53l-.06.12c-5.93,11.08-10.41,23.84-13.29,37.94-2.1,13.44-.97,24.6,1.27,27.24.21.24.38.37.53.37s3.63-.19,10.73-16.76c.04-.1.09-.2.15-.29,1.93-3.13,2.67-7.34,3.46-11.8.72-4.09,1.46-8.32,3.21-12.09.78-3.12,3.64-5.27,7.06-5.27,3.74,0,6.43,2.56,6.59,6.25.42,2.58-.43,6.96-1.83,13.81-1.64,8.03-4.12,20.16-1.51,23.37.26.33.66.66,1.57.66.32,0,.68-.04,1.07-.12,8.4-3.61,9.71-14.39,10.97-24.82,1.3-10.74,2.65-21.84,13.16-21.84.32,0,.65.01.99.03.16.01.33.04.49.09,5.59,1.84,3.73,9.85,1.57,19.13-1.91,8.22-4.08,17.54-1.44,22.8,1.19,1.83,1.9,2.24,2.09,2.33,2.03-1.15,4.07-12.69,5.3-19.62,2.64-14.89,4.92-27.76,11.95-27.76,1.01,0,2.04.29,3.05.88.21.12.39.28.53.47,1.39,1.93,1.04,4.2.64,6.12,3.6-3.93,8.39-6.22,14.28-6.8.07,0,.14-.01.2-.01.02,0,.04,0,.06,0,7.67.23,10.93,4,12.31,7.11,2.47,5.58.82,12.92-1,18.09-2.04,5.79-5.31,11.78-8.57,15.66-.75,1.05-1.59,2.16-2.61,3.17,3.21-1.13,7.06-3.03,7.87-3.8.12-.15.27-.29.42-.4,2.25-1.6,3.33-10.16,4.21-17.04,1.48-11.7,2.88-22.75,9.96-22.75.93,0,1.9.22,2.89.65.13.06.27.13.38.21,2.3,1.62,2.18,4.12,1.83,6.12,6.08-5.97,11.24-7.3,14.63-7.3,4.1,0,7.59,1.94,9.81,5.46,3.58,5.67,3.23,14.38-.94,23.29-2.62,6.21-5.39,12.12-10.18,16.23,4.58-.73,9.63-5.19,12.33-9.42,2.83-5.15,6.46-6.99,8.91-6.99,1.85,0,3.35.95,4.03,2.55,1.07,2.54-.24,6-3.59,9.53-1.05,1.5-2.59,3.03-4.58,4.54h0c-3.74,3.43-8.52,5.77-14.21,6.95l-.18.03c-3.66.42-7.12.63-10.28.63h0c-4.71,0-7.83-.46-9.9-.76-.69-.1-1.27-.19-1.69-.22-.09.67-.14,1.85-.2,3-.19,4.11-.5,10.98-2.68,22.82-.4,3.19-3.77,5.41-6.57,5.41-2.14,0-3.85-1.26-4.45-3.28l-.05-.2c-1.17-6.3-.87-12.88-.58-19.24.16-3.45.31-6.76.23-9.94-6.03,1.98-11.45,2.94-16.49,2.94-3.39,0-5.97-.44-7.86-.77-1.03-.18-1.92-.33-2.52-.33-.5,0-.75,0-1.23,1.87-.65,2.57-1.12,7.24-1.91,14.99,0,.01,0,.08,0,.1-.16,1.29-.16,2.66-.15,3.98,0,3.85,0,9.11-5.87,10.09-.09.02-.18.02-.28.03h-.18ZM254.87,92.59h0ZM271.72,58.03c-2.76,0-7.7,4.11-9.78,8.15-.01.03-.03.06-.04.08-4.65,8.1-6.16,17.6-6.98,25.89.84-.03,2.02-.36,2.98-.63.47-.13.88-.25,1.26-.33,12.17-5.11,14.11-20.93,14.38-27.52.24-3.69-.51-4.92-.84-5.28-.17-.18-.41-.36-.96-.36ZM230.37,58.25c-3.34,0-10.12,5.7-10.94,8.58-.06.22-.16.43-.29.62-.52.82-2.24,5.93-3.72,12.08-1.63,6.78-1.95,10.38-1.86,11.86,6.27-.16,10.82-3.44,13.9-9.99,3.06-6.5,3.84-14.63,3.97-20.3,0-.03,0-.06,0-.09.1-1.48-.14-2.3-.4-2.57-.04-.05-.18-.19-.67-.19Z"/><path class="c" d="M292.24,88.21c8.42-8.73-.38-12.77-5.9-2.67-3.84,6.05-12.1,12.64-18.62,9.91-.36-1.02.62-1.33,1.25-1.75,5.82-3.89,8.85-10.62,11.49-16.9,10.08-21.48-5.26-35.9-22.11-16.9-.74,1.55-2.57.91-2.01-.8-.02-2.24,1.79-5.64-.47-7.23-11.95-5.24-7.83,33.77-14.99,38.87-1.33,1.83-18.14,9.26-13.77,3.02,2.27-1.13,3.78-3.02,5.21-5.02,7.94-9.4,19.21-36.79-1.14-37.4-5.97.59-11.07,3.13-14.62,8.25-.44.63-.86,1.59-1.81,1.17-1.89-2.39,1.46-6.87-.32-9.51-13.52-7.46-10.6,62.76-23.07,43.39-6.02-11.67,8.63-38.38,1.06-40.92-18.72-1.25-4.87,38.44-24.31,46.49-14.1,3.28-.66-32.26-2.03-39.46-.14-5.88-8.5-5.56-9.55-.5-3.6,7.6-2.83,17.76-6.88,24.3-15.3,35.73-20.14,11.16-16.51-12.04,2.74-13.4,7.03-26.45,13.49-38.51,1.83-4.06,7.32-11.28,2.68-14.78-2.78-1.75-5.72-1.39-7.83.84-13.28,18.67-23.89,42.17-22.7,65.55-.77,11.72,11.39,31.27,23.32,19.08,3.1-3.32,5.55-7.06,7.53-11.13.36-.73.81-1.61,1.66-1.46.87.15,1.42.87,1.68,1.9,1.81,7.72,10.2,14.71,17.61,8.53,5.98-3.05,8.99-15.63,11.96-7.89,2.12,5.13,8.27,9.67,13.9,6.63.62-.42,1.32-1.17,2.14-.57,2.35,3.45-4.09,29.61,3.87,29.36,5.54-.92,3.61-6.72,4.27-12.22,3.39-33.56.92-9.34,34.02-21.44.74,10.01-1.47,21.34.45,31.66,1.06,3.46,6.58,1.27,6.92-1.85,7.45-40.29-7.03-23.4,26.56-27.22,4.84-1.01,9.47-3.02,13.19-6.43,0,0,0,0,0-.01,2.09-1.57,3.5-3.03,4.36-4.31ZM212.5,93.5c-3.61.16,3.18-24.72,4.91-27.25,1.52-5.38,16.87-16.63,16.12-5.11-.29,13.42-4.09,32.79-21.03,32.35ZM259.77,93.22c-1.95.38-7.12,2.58-7-.81.92-9.43,2.53-18.89,7.3-27.2,3.74-7.24,16.5-15.95,15.56-1.45-.46,11.4-4.41,24.78-15.85,29.46Z"/></svg>