<?xml version="1.0" encoding="UTF-8"?><svg id="a" xmlns="http://www.w3.org/2000/svg" viewBox="0 0 250 184.3"><defs><style>.b,.c{opacity:.2;}.d{opacity:.8;}.e,.f,.g,.h,.i,.j,.k,.l,.m,.n,.o,.p,.c{stroke-width:0px;}.f{fill:#fab97b;}.g{fill:#58b947;}.h{fill:#40863f;}.i{fill:#231f20;}.j{fill:#cf1f35;}.k{fill:#d84b26;}.l{fill:#bf8763;}.m{fill:#9b1b29;}.n{fill:#f36d21;}.o{fill:#fff;}.p{fill:#e53970;}</style></defs><g class="b"><path class="i" d="M134.74,1.04h-6.12c-5.2,0-9.43,4.23-9.43,9.43v27.65c0,4.69,3.45,8.6,7.95,9.31v11.31c0,1.71,1,3.31,2.54,4.07.14.07.29.14.44.19,0,0,.03.01.04.01.14.05.28.09.41.13l.09.02c.13.03.26.05.38.07.04,0,.07.01.13.02.18.02.34.03.51.03.61,0,1.21-.12,1.77-.36,1.68-.72,2.77-2.36,2.77-4.18v-11.31c4.5-.71,7.95-4.62,7.95-9.31V10.47c0-5.2-4.23-9.43-9.43-9.43Z"/><path class="i" d="M158.21,8.84h-3.75c-3.55,0-6.44,2.89-6.44,6.44v16.92c0,3.01,2.07,5.54,4.86,6.24v6.37c0,1.44.91,2.74,2.27,3.24.01,0,.02,0,.03.01.1.04.21.07.29.09.02,0,.06.02.08.02.09.02.19.04.28.05.03,0,.08.01.1.01.13.01.26.02.38.02,1.9,0,3.45-1.55,3.45-3.45v-6.37c2.79-.7,4.86-3.24,4.86-6.24V15.28c0-3.55-2.89-6.44-6.44-6.44Z"/><path class="i" d="M107.85,8.84h-3.75c-3.55,0-6.44,2.89-6.44,6.44v16.92c0,3.01,2.07,5.54,4.86,6.24v6.37c0,1.44.91,2.74,2.26,3.23,0,0,.02,0,.03.01.1.04.21.07.3.09.02,0,.06.02.08.02.09.02.19.04.28.05.03,0,.08.01.1.01.13.01.26.02.38.02,1.9,0,3.45-1.55,3.45-3.45v-6.37c2.79-.7,4.86-3.24,4.86-6.24V15.28c0-3.55-2.89-6.44-6.44-6.44Z"/></g><path class="i" d="M132.38,0h-6.12c-5.2,0-9.43,4.23-9.43,9.43v27.65c0,4.69,3.45,8.6,7.95,9.31v11.31c0,1.71,1,3.31,2.54,4.07.14.07.29.14.44.19,0,0,.03.01.04.01.14.05.28.09.41.13l.09.02c.13.03.26.05.38.07.04,0,.07.01.13.02.18.02.34.03.51.03.61,0,1.21-.12,1.77-.36,1.68-.72,2.77-2.36,2.77-4.18v-11.31c4.5-.71,7.95-4.62,7.95-9.31V9.43c0-5.2-4.23-9.43-9.43-9.43Z"/><path class="i" d="M155.85,7.8h-3.75c-3.55,0-6.44,2.89-6.44,6.44v16.92c0,3.01,2.07,5.54,4.86,6.24v6.37c0,1.44.91,2.74,2.27,3.24.01,0,.02,0,.03.01.1.04.21.07.29.09.02,0,.06.02.08.02.09.02.19.04.28.05.03,0,.08.01.1.01.13.01.26.02.38.02,1.9,0,3.45-1.55,3.45-3.45v-6.37c2.79-.7,4.86-3.24,4.86-6.24V14.24c0-3.55-2.89-6.44-6.44-6.44Z"/><path class="i" d="M105.49,7.8h-3.75c-3.55,0-6.44,2.89-6.44,6.44v16.92c0,3.01,2.07,5.54,4.86,6.24v6.37c0,1.44.91,2.74,2.26,3.23,0,0,.02,0,.03.01.1.04.21.07.3.09.02,0,.06.02.08.02.09.02.19.04.28.05.03,0,.08.01.1.01.13.01.26.02.38.02,1.9,0,3.45-1.55,3.45-3.45v-6.37c2.79-.7,4.86-3.24,4.86-6.24V14.24c0-3.55-2.89-6.44-6.44-6.44Z"/><rect class="f" x="126.53" y="38.76" width="5.63" height="21.75" rx="2.82" ry="2.82"/><path class="l" d="M130.23,38.9c.06.22.09.46.09.7v17.1c0,2.32-.8,3.12-2.21,3.52.37.18.79.29,1.23.29,1.55,0,2.82-1.27,2.82-2.82v-16.12c0-1.24-.81-2.3-1.93-2.67Z"/><rect class="j" x="118.58" y="1.72" width="21.53" height="43.06" rx="7.7" ry="7.7"/><path class="m" d="M132.4,1.72h-3.07c3.67,1.8,7.45,1.38,7.82,19.79.03,1.36.74,11.07-2.06,17.84-1.2,2.9-2.97,3.75-6,5.42h3.31c4.24,0,7.7-3.47,7.7-7.7V9.43c0-4.24-3.47-7.7-7.7-7.7Z"/><rect class="f" x="152.28" y="32.19" width="3.45" height="13.31" rx="1.72" ry="1.72"/><path class="l" d="M154.54,32.28c.04.14.06.28.06.43v10.46c0,1.42-.49,1.91-1.35,2.15.23.11.48.18.76.18.95,0,1.72-.78,1.72-1.72v-9.86c0-.76-.5-1.41-1.18-1.63Z"/><rect class="n" x="147.41" y="9.53" width="13.17" height="26.35" rx="4.71" ry="4.71"/><path class="k" d="M155.87,9.53h-1.88c2.24,1.1,4.56.84,4.79,12.11.02.83.45,6.77-1.26,10.92-.73,1.77-1.82,2.29-3.67,3.32h2.02c2.59,0,4.71-2.12,4.71-4.71V14.24c0-2.59-2.12-4.71-4.71-4.71Z"/><rect class="f" x="101.92" y="32.19" width="3.45" height="13.31" rx="1.72" ry="1.72"/><path class="l" d="M104.18,32.28c.04.14.06.28.06.43v10.46c0,1.42-.49,1.91-1.35,2.15.23.11.48.18.76.18.95,0,1.72-.78,1.72-1.72v-9.86c0-.76-.5-1.41-1.18-1.63Z"/><rect class="g" x="97.05" y="9.53" width="13.17" height="26.35" rx="4.71" ry="4.71"/><path class="h" d="M105.51,9.53h-1.88c2.24,1.1,4.56.84,4.79,12.11.02.83.45,6.77-1.26,10.92-.73,1.77-1.82,2.29-3.67,3.32h2.02c2.59,0,4.71-2.12,4.71-4.71V14.24c0-2.59-2.12-4.71-4.71-4.71Z"/><g class="d"><path class="o" d="M121.78,20.42c-.5,0-.9.4-.9.9v2.08c0,.5.4.9.9.9s.9-.4.9-.9v-2.08c0-.5-.4-.9-.9-.9Z"/><path class="o" d="M123.54,5.72c-.32-.38-.88-.43-1.26-.11-1.35,1.13-1.39,3.08-1.39,3.3v8.91c0,.5.4.9.9.9s.9-.4.9-.9v-8.91c0-.37.14-1.43.75-1.93.38-.32.43-.88.11-1.26Z"/></g><g class="d"><path class="o" d="M98.89,23.27c-.36,0-.64.29-.64.64v1.49c0,.36.29.64.64.64s.64-.29.64-.64v-1.49c0-.36-.29-.64-.64-.64Z"/><path class="o" d="M100.15,12.7c-.23-.27-.63-.31-.91-.08-.97.81-1,2.22-1,2.37v6.4c0,.36.29.64.64.64s.64-.29.64-.64v-6.4c0-.26.1-1.03.54-1.39.27-.23.31-.63.08-.91Z"/></g><g class="d"><path class="o" d="M149.7,23.59c-.36,0-.64.29-.64.64v1.49c0,.36.29.64.64.64s.64-.29.64-.64v-1.49c0-.36-.29-.64-.64-.64Z"/><path class="o" d="M150.96,13.02c-.23-.27-.63-.31-.91-.08-.97.81-1,2.22-1,2.37v6.4c0,.36.29.64.64.64s.64-.29.64-.64v-6.4c0-.26.1-1.03.54-1.39.27-.23.31-.63.08-.91Z"/></g><path class="c" d="M37.99,184.3c-16.39,0-30.43-11.14-32.67-25.92-1.01-6.68.6-13.14,4.64-18.69,4.52-6.2,11.73-10.86,21.42-13.86,4.1-1.27,8.92-1.91,14.33-1.91,9.87,0,21.26,2.18,30.49,5.84.17.04.39.1.6.15.06-.26.11-.55.15-.75.33-1.6.63-3.18.92-4.77.89-4.7,1.8-9.54,3.37-14.2-8.27,6.21-16.45,9.48-23.78,9.48-8.95,0-16.18-4.94-19.34-13.22-3.6-9.43-2.17-25.43,13.5-39.78-1.11-.62-4.26-1.43-8.64-1.43-1.57,0-3,.12-4.14.33-14.1,2.85-14,9.01-13.89,15.54.07,4.44.16,9.46-5.69,11.55-.19.07-.38.1-.58.1-.08,0-.15,0-.23-.02-5.6-.75-6.96-4.28-7.26-6.31-1.27-8.38,9.73-22.23,16.84-25.52,4.82-2.33,9.29-3.46,13.66-3.46,4.71,0,8.37,1.35,11.32,2.43,1.95.72,3.63,1.34,5.03,1.34.99,0,1.81-.32,2.66-1.03.05-.04.1-.08.15-.12,8.63-5.77,18.86-8.95,28.78-8.95,4.27,0,8.42.59,12.33,1.76,4.09,1.24,11.34,4.15,14.06,9.77,1.33,2.75,1.39,5.75.16,8.89-2.24,6.85-7.39,11.91-13.55,13.71.43.2.8.47,1.1.81.72.8,1.02,1.88.88,3.21-.02.22-.09.44-.19.64-1.92,3.61-6.07,14.81-8.94,25.1-4.06,14.55-3.77,20.3-2.88,21.58,40.8,17.24,72.83,25.99,95.21,25.99h0c18.74,0,30.15-6.27,33.93-18.63,1.09-5.41,4.02-7.83,6.45-7.83,1.43,0,2.63.82,3.2,2.2,1.59,3.81-1.81,10.46-9.08,17.78-9.44,9.26-25.05,13.95-46.4,13.95-24.21,0-48.98-6.11-58.51-8.74-.02,0-.04-.01-.06-.02-16.47-5.21-23.56-9.23-26.97-11.16-.55-.31-1.11-.63-1.5-.82-.13.23-.28.52-.42.8-1.31,2.53-4.03,7.81-12.89,16.38-15.22,14.74-28.85,17.84-37.6,17.84ZM15,151.4c-.72,7.6.75,13.47,4.35,17.44,4.17,4.6,10.25,5.56,14.62,5.56,10.9,0,23.05-5.72,30.22-14.22.04-.05.08-.09.13-.14,4.87-4.64,8.14-11.03,9.74-19-.06-1.43-2.75-2.25-5.99-3.1-.72-.19-1.43-.38-2.09-.57-7.38-2.22-15.37-3.44-22.5-3.44-20.57,0-26.85,9.48-28.48,17.47ZM57.58,82.59c-2.07,3.02-4.08,8.33-5.13,13.57-1.19,5.95-1,11.04.53,13.95,1.06,2.03,2.68,2.97,5.09,2.97,1.33,0,2.88-.3,4.61-.9,12.49-4.6,20.92-10.91,25.76-19.29.04-.07.08-.13.13-.19,1.37-1.78,4.65-5.14,7.48-6.7-.14,0-.29,0-.43,0-11.98,0-23-6.13-32.42-11.95-1,.24-3.04,4.06-3.72,5.34-.7,1.31-1.3,2.45-1.9,3.21ZM69.34,68.82c8.23,4.89,17.56,10.42,27.09,10.42.23,0,.46,0,.69,0,4.64-.56,8.29-2.97,11.15-7.38,1.14-2.14,1.2-4.02.17-5.75-1.71-2.87-8.53-6.85-16.88-6.85-.25,0-.5,0-.73.02-.03,0-.41,0-.41,0-4.03,0-7.97.84-11.69,2.5l-.04.02c-7.36,3.68-9.56,5.73-10.2,6.51l.85.51Z"/><path class="c" d="M171.47,159.08c-1.18,0-2.22-.45-3.02-1.31-2.41-2.59-2.2-8.28-1.63-16.03.15-2.06.34-4.67.28-6.25-1.15.55-2.36.83-3.61.83-4.51,0-8.39-3.67-9.9-7.29-.11-.27-.2-.48-.28-.64-.48.53-1.13,1.47-1.61,2.16-1.39,2-3.11,4.48-5.4,5.72-1.83,1.47-3.82,2.22-5.92,2.22-4.17,0-9.32-3.58-11.03-9.6-1.73,3.4-3.75,6.32-6.16,8.88-2.43,2.47-5.02,3.7-7.74,3.7-2.87,0-5.71-1.41-8.21-4.09-3.93-4.2-6.54-11.08-6.22-16.42-.59-11.99,2.23-31.18,19-54.63.05-.07.1-.13.15-.19,1.33-1.39,2.97-2.13,4.76-2.13,1.31,0,2.6.39,3.84,1.17.04.03.08.05.12.08,4.27,3.21,1.34,8.58-.6,12.13-.41.76-.81,1.48-1.07,2.06-.02.04-.03.07-.05.11-4.87,9.05-8.55,19.48-10.92,31-1.72,10.98-.8,20.11,1.05,22.26.17.2.31.3.43.3s2.98-.16,8.81-13.7c.03-.08.07-.16.12-.23,1.59-2.56,2.2-6,2.85-9.65.59-3.34,1.2-6.8,2.64-9.88.64-2.55,2.99-4.31,5.8-4.31,3.07,0,5.28,2.09,5.42,5.11.34,2.11-.35,5.69-1.5,11.28-1.35,6.56-3.38,16.48-1.24,19.1.22.27.54.54,1.29.54.26,0,.56-.03.88-.1,6.9-2.95,7.97-11.76,9.01-20.29,1.07-8.78,2.18-17.85,10.81-17.85.26,0,.53,0,.81.03.15,0,.29.04.43.09,4.55,1.52,3.03,8.06,1.26,15.62-1.57,6.72-3.35,14.33-1.18,18.63.98,1.5,1.56,1.83,1.72,1.9,1.67-.94,3.35-10.37,4.36-16.04,2.17-12.17,4.04-22.69,9.81-22.69.8,0,1.62.23,2.43.67.24.13.45.32.6.55,1.05,1.55.77,3.36.44,4.88,2.96-3.22,6.89-5.08,11.73-5.56.06,0,.11,0,.17,0,.02,0,.03,0,.05,0,6.3.19,8.98,3.27,10.11,5.81,2.03,4.56.67,10.56-.82,14.79-1.67,4.73-4.37,9.63-7.04,12.8-.62.86-1.31,1.76-2.14,2.59,2.63-.92,5.8-2.48,6.47-3.11.1-.13.22-.24.35-.33,1.85-1.31,2.74-8.31,3.45-13.93,1.22-9.56,2.37-18.59,8.18-18.59.76,0,1.57.18,2.39.54.11.05.21.1.3.17,1.89,1.33,1.79,3.37,1.51,5,4.99-4.88,9.23-5.97,12.02-5.97,3.37,0,6.23,1.59,8.06,4.46,2.94,4.64,2.65,11.75-.78,19.03-2.15,5.07-4.43,9.9-8.36,13.27,3.76-.59,7.91-4.24,10.13-7.7,2.33-4.21,5.3-5.71,7.32-5.71,1.52,0,2.76.78,3.31,2.08.88,2.07-.2,4.91-2.95,7.79-.86,1.23-2.12,2.47-3.76,3.71,0,0,0,0,0,0-3.07,2.8-7,4.71-11.67,5.68-.05.01-.1.02-.16.03-3.01.34-5.85.51-8.44.51h0c-3.87,0-6.43-.37-8.13-.62-.57-.08-1.04-.15-1.39-.18-.08.55-.12,1.51-.16,2.45-.15,3.36-.41,8.97-2.21,18.65-.33,2.61-3.1,4.42-5.4,4.42-1.75,0-3.15-1.02-3.65-2.66-.02-.06-.03-.13-.05-.19-.96-5.15-.72-10.53-.48-15.72.13-2.82.25-5.52.19-8.12-4.95,1.61-9.4,2.4-13.55,2.4-2.79,0-4.91-.36-6.45-.63-.85-.14-1.58-.27-2.07-.27-.41,0-.62,0-1.01,1.53-.54,2.1-.92,5.92-1.57,12.26,0,.01,0,.07,0,.08-.13,1.06-.13,2.17-.13,3.25,0,3.14,0,7.45-4.82,8.25-.08.01-.15.02-.23.02h-.15ZM214.67,126.72h0ZM228.53,98.44c-2.27,0-6.33,3.37-8.05,6.67-.01.02-.02.05-.04.07-3.83,6.63-5.07,14.4-5.75,21.19.69-.02,1.66-.3,2.45-.52.39-.11.73-.2,1.04-.27,10.01-4.18,11.61-17.13,11.83-22.52.2-3.02-.42-4.03-.69-4.32-.14-.15-.34-.3-.79-.3ZM194.52,98.63c-2.75,0-8.33,4.66-9,7.02-.05.18-.13.35-.24.51-.43.67-1.84,4.86-3.06,9.89-1.34,5.55-1.6,8.49-1.53,9.7,5.16-.13,8.9-2.81,11.43-8.17,2.51-5.32,3.16-11.97,3.26-16.61,0-.03,0-.05,0-.08.08-1.21-.12-1.88-.33-2.1-.04-.04-.14-.15-.55-.15Z"/><path class="e" d="M32.96,180.09c-16.39,0-30.43-11.14-32.67-25.92-1.01-6.68.6-13.14,4.64-18.69,4.52-6.2,11.73-10.86,21.42-13.86,4.1-1.27,8.92-1.91,14.33-1.91,9.87,0,21.26,2.18,30.49,5.84.17.04.39.1.6.15.06-.26.11-.55.15-.75.33-1.6.63-3.18.92-4.77.89-4.7,1.8-9.54,3.37-14.2-8.27,6.21-16.45,9.48-23.78,9.48-8.95,0-16.18-4.94-19.34-13.22-3.6-9.43-2.17-25.43,13.5-39.78-1.11-.62-4.26-1.43-8.64-1.43-1.57,0-3,.12-4.14.33-14.1,2.85-14,9.01-13.89,15.54.07,4.44.16,9.46-5.69,11.55-.19.07-.38.1-.58.1-.08,0-.15,0-.23-.02-5.6-.75-6.96-4.28-7.26-6.31-1.27-8.38,9.73-22.23,16.84-25.52,4.82-2.33,9.29-3.46,13.66-3.46,4.71,0,8.37,1.35,11.32,2.43,1.95.72,3.63,1.34,5.03,1.34.99,0,1.81-.32,2.66-1.03.05-.04.1-.08.15-.12,8.63-5.77,18.86-8.95,28.78-8.95,4.27,0,8.42.59,12.33,1.76,4.09,1.24,11.34,4.15,14.06,9.77,1.33,2.75,1.39,5.75.16,8.89-2.24,6.85-7.39,11.91-13.55,13.71.43.2.8.47,1.1.81.72.8,1.02,1.88.88,3.21-.02.22-.09.44-.19.64-1.92,3.61-6.07,14.81-8.94,25.1-4.06,14.55-3.77,20.3-2.88,21.58,40.8,17.24,72.83,25.99,95.21,25.99h0c18.74,0,30.15-6.27,33.93-18.63,1.09-5.41,4.02-7.83,6.45-7.83,1.43,0,2.63.82,3.2,2.2,1.59,3.81-1.81,10.46-9.08,17.78-9.44,9.26-25.05,13.95-46.4,13.95-24.21,0-48.98-6.11-58.51-8.74-.02,0-.04-.01-.06-.02-16.47-5.21-23.56-9.23-26.97-11.16-.55-.31-1.11-.63-1.5-.82-.13.23-.28.52-.42.8-1.31,2.53-4.03,7.81-12.89,16.38-15.22,14.74-28.85,17.84-37.6,17.84ZM9.97,147.19c-.72,7.6.75,13.47,4.35,17.44,4.17,4.6,10.25,5.56,14.62,5.56,10.9,0,23.05-5.72,30.22-14.22.04-.05.08-.09.13-.14,4.87-4.64,8.14-11.03,9.74-19-.06-1.43-2.75-2.25-5.99-3.1-.72-.19-1.43-.38-2.09-.57-7.38-2.22-15.37-3.44-22.5-3.44-20.57,0-26.85,9.48-28.48,17.47ZM52.55,78.39c-2.07,3.02-4.08,8.33-5.13,13.57-1.19,5.95-1,11.04.53,13.95,1.06,2.03,2.68,2.97,5.09,2.97,1.33,0,2.88-.3,4.61-.9,12.49-4.6,20.92-10.91,25.76-19.29.04-.07.08-.13.13-.19,1.37-1.78,4.65-5.14,7.48-6.7-.14,0-.29,0-.43,0-11.98,0-23-6.13-32.42-11.95-1,.24-3.04,4.06-3.72,5.34-.7,1.31-1.3,2.45-1.9,3.21ZM64.31,64.61c8.23,4.89,17.56,10.42,27.09,10.42.23,0,.46,0,.69,0,4.64-.56,8.29-2.97,11.15-7.38,1.14-2.14,1.2-4.02.17-5.75-1.71-2.87-8.53-6.85-16.88-6.85-.25,0-.5,0-.73.02-.03,0-.41,0-.41,0-4.03,0-7.97.84-11.69,2.5l-.04.02c-7.36,3.68-9.56,5.73-10.2,6.51l.85.51Z"/><path class="p" d="M84.9,89.55c-5.82,10.08-15.98,16.12-26.69,20.06-19.68,6.78-13.41-23.07-7.05-32.26,1.75-2.17,4.53-10.14,7.61-9.17,10.16,6.29,21.56,12.59,33.89,11.82,7.99,0,14.49-5.91,16.87-13.28,3.58-9.07-5.93-14.26-13.08-16.43-13.43-4-28.38-.57-39.66,6.98-6.86,5.79-13.61-8.41-33.05.98-8.97,4.15-24.45,26.61-10.07,28.55,11.65-4.16-6.11-21.9,19.83-27.15,5.79-1.11,17.08.38,14.83,3.56-32.12,28.69-8.84,70.5,29.04,39.67.78-.96,2.07-.22,1.48.99-2.79,6.83-3.75,14.22-5.22,21.41-.48,2.48-.57,2.55-2.99,1.91-12.38-4.92-31.02-7.87-43.77-3.92-55.78,17.26-8.48,87.09,42.48,37.75,26.23-25.4-3.05-20.32,43.5-5.6,27.51,7.59,81.08,16.96,103.22-4.76,17.25-17.37,4.69-22.5,2.34-10.52-12.9,42.64-104.14,5.39-131.84-6.33-5.25-4.7,7.42-41.63,11.31-48.94.33-3.19-2.9-2.67-4.86-2.08-2.53.77-6.51,4.67-8.11,6.76ZM72.95,56.01c4.06-1.81,8.32-2.71,12.77-2.67,7.87-.36,24.67,4.71,19.01,15.18-2.96,4.59-7.03,7.58-12.51,8.22-10.79.33-20.97-6.02-30-11.37-3.84-2.13,8.73-8.37,10.74-9.37ZM60.48,157.09c-16.09,19.09-55.49,23.72-52.22-10.15,4.51-22.55,34.66-20.99,53.18-15.43,3.85,1.16,9.47,1.9,9.31,5.51-1.5,7.6-4.61,14.67-10.28,20.07Z"/><path class="e" d="M166.44,154.87c-1.18,0-2.22-.45-3.02-1.31-2.41-2.59-2.2-8.28-1.63-16.03.15-2.06.34-4.67.28-6.25-1.15.55-2.36.83-3.61.83-4.51,0-8.39-3.67-9.9-7.29-.11-.27-.2-.48-.28-.64-.48.53-1.13,1.47-1.61,2.16-1.39,2-3.11,4.48-5.4,5.72-1.83,1.47-3.82,2.22-5.92,2.22-4.17,0-9.32-3.58-11.03-9.6-1.73,3.4-3.75,6.32-6.16,8.88-2.43,2.47-5.02,3.7-7.74,3.7-2.87,0-5.71-1.41-8.21-4.09-3.93-4.2-6.54-11.08-6.22-16.42-.59-11.99,2.23-31.18,19-54.63.05-.07.1-.13.15-.19,1.33-1.39,2.97-2.13,4.76-2.13,1.31,0,2.6.39,3.84,1.17.04.03.08.05.12.08,4.27,3.21,1.34,8.58-.6,12.13-.41.76-.81,1.48-1.07,2.06-.02.04-.03.07-.05.11-4.87,9.05-8.55,19.48-10.92,31-1.72,10.98-.8,20.11,1.05,22.26.17.2.31.3.43.3s2.98-.16,8.81-13.7c.03-.08.07-.16.12-.23,1.59-2.56,2.2-6,2.85-9.65.59-3.34,1.2-6.8,2.64-9.88.64-2.55,2.99-4.31,5.8-4.31,3.07,0,5.28,2.09,5.42,5.11.34,2.11-.35,5.69-1.5,11.28-1.35,6.56-3.38,16.48-1.24,19.1.22.27.54.54,1.29.54.26,0,.56-.03.88-.1,6.9-2.95,7.97-11.76,9.01-20.29,1.07-8.78,2.18-17.85,10.81-17.85.26,0,.53,0,.81.03.15,0,.29.04.43.09,4.55,1.52,3.03,8.06,1.26,15.62-1.57,6.72-3.35,14.33-1.18,18.63.98,1.5,1.56,1.83,1.72,1.9,1.67-.94,3.35-10.37,4.36-16.04,2.17-12.17,4.04-22.69,9.81-22.69.8,0,1.62.23,2.43.67.24.13.45.32.6.55,1.05,1.55.77,3.36.44,4.88,2.96-3.22,6.89-5.08,11.73-5.56.06,0,.11,0,.17,0,.02,0,.03,0,.05,0,6.3.19,8.98,3.27,10.11,5.81,2.03,4.56.67,10.56-.82,14.79-1.67,4.73-4.37,9.63-7.04,12.8-.62.86-1.31,1.76-2.14,2.59,2.63-.92,5.8-2.48,6.47-3.11.1-.13.22-.24.35-.33,1.85-1.31,2.74-8.31,3.45-13.93,1.22-9.56,2.37-18.59,8.18-18.59.76,0,1.57.18,2.39.54.11.05.21.1.3.17,1.89,1.33,1.79,3.37,1.51,5,4.99-4.88,9.23-5.97,12.02-5.97,3.37,0,6.23,1.59,8.06,4.46,2.94,4.64,2.65,11.75-.78,19.03-2.15,5.07-4.43,9.9-8.36,13.27,3.76-.59,7.91-4.24,10.13-7.7,2.33-4.21,5.3-5.71,7.32-5.71,1.52,0,2.76.78,3.31,2.08.88,2.07-.2,4.91-2.95,7.79-.86,1.23-2.12,2.47-3.76,3.71,0,0,0,0,0,0-3.07,2.8-7,4.71-11.67,5.68-.05.01-.1.02-.16.03-3.01.34-5.85.51-8.44.51h0c-3.87,0-6.43-.37-8.13-.62-.57-.08-1.04-.15-1.39-.18-.08.55-.12,1.51-.16,2.45-.15,3.36-.41,8.97-2.21,18.65-.33,2.61-3.1,4.42-5.4,4.42-1.75,0-3.15-1.02-3.65-2.66-.02-.06-.03-.13-.05-.19-.96-5.15-.72-10.53-.48-15.72.13-2.82.25-5.52.19-8.12-4.95,1.61-9.4,2.4-13.55,2.4-2.79,0-4.91-.36-6.45-.63-.85-.14-1.58-.27-2.07-.27-.41,0-.62,0-1.01,1.53-.54,2.1-.92,5.92-1.57,12.26,0,.01,0,.07,0,.08-.13,1.06-.13,2.17-.13,3.25,0,3.14,0,7.45-4.82,8.25-.08.01-.15.02-.23.02h-.15ZM209.64,122.51h0ZM223.5,94.24c-2.27,0-6.33,3.37-8.05,6.67-.01.02-.02.05-.04.07-3.83,6.63-5.07,14.4-5.75,21.19.69-.02,1.66-.3,2.45-.52.39-.11.73-.2,1.04-.27,10.01-4.18,11.61-17.13,11.83-22.52.2-3.02-.42-4.03-.69-4.32-.14-.15-.34-.3-.79-.3ZM189.49,94.42c-2.75,0-8.33,4.66-9,7.02-.05.18-.13.35-.24.51-.43.67-1.84,4.86-3.06,9.89-1.34,5.55-1.6,8.49-1.53,9.7,5.16-.13,8.9-2.81,11.43-8.17,2.51-5.32,3.16-11.97,3.26-16.61,0-.03,0-.05,0-.08.08-1.21-.12-1.88-.33-2.1-.04-.04-.14-.15-.55-.15Z"/><path class="p" d="M240.38,118.93c6.92-7.14-.32-10.45-4.85-2.18-3.16,4.95-9.95,10.34-15.32,8.11-.29-.84.51-1.09,1.03-1.44,4.78-3.18,7.28-8.69,9.45-13.83,8.29-17.58-4.33-29.38-18.19-13.83-.61,1.27-2.12.75-1.65-.66-.02-1.84,1.48-4.61-.38-5.92-9.83-4.29-6.44,27.63-12.33,31.81-1.09,1.5-14.92,7.58-11.32,2.47,1.86-.93,3.11-2.47,4.29-4.11,6.53-7.69,15.8-30.11-.94-30.61-4.91.48-9.1,2.56-12.03,6.75-.36.51-.71,1.3-1.49.95-1.55-1.96,1.2-5.62-.26-7.78-11.12-6.11-8.72,51.36-18.98,35.51-4.95-9.55,7.1-31.41.87-33.49-15.4-1.02-4,31.46-20,38.04-11.6,2.69-.54-26.4-1.67-32.3-.12-4.81-6.99-4.55-7.86-.41-2.96,6.22-2.33,14.53-5.66,19.88-12.58,29.24-16.57,9.13-13.58-9.85,2.25-10.96,5.78-21.64,11.1-31.52,1.5-3.32,6.02-9.23,2.21-12.1-2.29-1.43-4.7-1.14-6.44.69-10.92,15.28-19.65,34.51-18.67,53.64-.63,9.59,9.37,25.59,19.18,15.61,2.55-2.71,4.56-5.77,6.19-9.1.29-.6.66-1.32,1.36-1.19.71.13,1.17.71,1.38,1.56,1.49,6.32,8.39,12.03,14.49,6.98,4.92-2.5,7.39-12.79,9.84-6.46,1.74,4.2,6.8,7.91,11.43,5.43.51-.34,1.09-.96,1.76-.47,1.93,2.82-3.36,24.23,3.18,24.02,4.55-.75,2.97-5.5,3.51-10,2.79-27.46.76-7.64,27.98-17.55.6,8.19-1.21,17.46.37,25.91.87,2.83,5.41,1.04,5.69-1.51,6.13-32.97-5.78-19.15,21.85-22.27,3.98-.82,7.79-2.47,10.85-5.26,0,0,0,0,0,0,1.72-1.29,2.88-2.48,3.59-3.53ZM174.79,123.26c-2.97.13,2.62-20.23,4.04-22.3,1.25-4.4,13.88-13.61,13.26-4.18-.24,10.98-3.36,26.83-17.3,26.47ZM213.67,123.03c-1.6.31-5.86,2.11-5.76-.66.75-7.72,2.08-15.46,6.01-22.26,3.08-5.92,13.57-13.05,12.8-1.19-.38,9.33-3.63,20.28-13.04,24.11Z"/></svg>